<svg xmlns="http://www.w3.org/2000/svg" xmlns:xlink="http://www.w3.org/1999/xlink" width="500" zoomAndPan="magnify" viewBox="0 0 375 374.999991" height="500" preserveAspectRatio="xMidYMid meet" version="1.0"><defs><g/><clipPath id="38bd3ceb8e"><path d="M 187.5 0 C 83.945312 0 0 83.945312 0 187.5 C 0 291.054688 83.945312 375 187.5 375 C 291.054688 375 375 291.054688 375 187.5 C 375 83.945312 291.054688 0 187.5 0 Z M 187.5 0 " clip-rule="nonzero"/></clipPath></defs><g clip-path="url(#38bd3ceb8e)"><rect x="-37.5" width="450" fill="#ff5757" y="-37.499999" height="449.999989" fill-opacity="1"/></g><g fill="#ffffff" fill-opacity="1"><g transform="translate(58.984973, 305.533662)"><g><path d="M 79.6875 6.03125 C 72.488281 6.03125 64.070312 5.34375 54.4375 3.96875 C 44.8125 2.59375 35.5 0.160156 26.5 -3.328125 C 17.507812 -6.828125 10.050781 -11.851562 4.125 -18.40625 C -1.800781 -24.96875 -4.765625 -33.4375 -4.765625 -43.8125 C -4.765625 -52.0625 -2.539062 -60.101562 1.90625 -67.9375 C 6.351562 -75.769531 12.28125 -81.800781 19.6875 -86.03125 C 24.125 -76.289062 30.46875 -68.507812 38.71875 -62.6875 C 46.976562 -56.875 56.1875 -52.75 66.34375 -50.3125 C 76.5 -47.882812 86.550781 -46.671875 96.5 -46.671875 C 106.875 -46.671875 116.453125 -47.675781 125.234375 -49.6875 C 134.015625 -51.695312 141.101562 -54.285156 146.5 -57.453125 C 151.894531 -60.628906 154.59375 -64.019531 154.59375 -67.625 C 154.59375 -71.851562 152 -74.863281 146.8125 -76.65625 C 141.632812 -78.457031 134.96875 -79.882812 126.8125 -80.9375 C 118.664062 -82 109.988281 -83.21875 100.78125 -84.59375 C 91.582031 -85.976562 82.90625 -88.253906 74.75 -91.421875 C 66.601562 -94.597656 59.9375 -99.304688 54.75 -105.546875 C 49.570312 -111.796875 46.984375 -120.316406 46.984375 -131.109375 C 46.984375 -145.285156 50.789062 -158.671875 58.40625 -171.265625 C 66.03125 -183.859375 76.082031 -195.285156 88.5625 -205.546875 C 101.050781 -215.816406 114.804688 -224.707031 129.828125 -232.21875 C 144.859375 -239.726562 159.9375 -245.492188 175.0625 -249.515625 C 190.195312 -253.535156 203.90625 -255.546875 216.1875 -255.546875 C 228.675781 -255.546875 238.941406 -253.21875 246.984375 -248.5625 C 255.023438 -243.90625 259.046875 -236.601562 259.046875 -226.65625 C 259.046875 -219.46875 257.40625 -212.429688 254.125 -205.546875 C 250.84375 -198.671875 247.082031 -192.054688 242.84375 -185.703125 C 238.613281 -179.359375 234.859375 -173.222656 231.578125 -167.296875 C 228.296875 -161.367188 226.550781 -155.867188 226.34375 -150.796875 C 214.070312 -151.210938 205.128906 -154.539062 199.515625 -160.78125 C 193.910156 -167.03125 191.109375 -175.765625 191.109375 -186.984375 C 191.109375 -189.523438 191.210938 -192.222656 191.421875 -195.078125 C 191.628906 -197.929688 192.050781 -200.945312 192.6875 -204.125 C 185.707031 -202.21875 177.878906 -199.519531 169.203125 -196.03125 C 160.523438 -192.539062 152.269531 -188.46875 144.4375 -183.8125 C 136.613281 -179.15625 130.109375 -174.070312 124.921875 -168.5625 C 119.734375 -163.0625 117.140625 -157.347656 117.140625 -151.421875 C 117.140625 -145.921875 119.570312 -141.367188 124.4375 -137.765625 C 129.3125 -134.171875 135.554688 -131.101562 143.171875 -128.5625 C 150.785156 -126.03125 158.828125 -123.441406 167.296875 -120.796875 C 175.765625 -118.148438 183.804688 -115.023438 191.421875 -111.421875 C 199.046875 -107.828125 205.289062 -103.222656 210.15625 -97.609375 C 215.019531 -92.003906 217.453125 -84.863281 217.453125 -76.1875 C 217.453125 -66.445312 213.585938 -56.707031 205.859375 -46.96875 C 198.140625 -37.238281 187.664062 -28.351562 174.4375 -20.3125 C 161.207031 -12.269531 146.390625 -5.867188 129.984375 -1.109375 C 113.585938 3.648438 96.820312 6.03125 79.6875 6.03125 Z M 79.6875 6.03125 "/></g></g></g></svg>